<svg width="167" height="110" viewBox="0 0 167 110" fill="none" xmlns="http://www.w3.org/2000/svg">
<path id="Vector" d="M176.714 80.3717C143.752 104.492 121.023 113.274 103.07 108.789C80.329 103.107 76.9003 79.5082 73.277 54.5271C71.7917 44.0397 70.1667 33.2136 67.1344 25.014C64.5236 17.996 61.1606 13.7946 57.4335 12.8634C54.2906 12.0781 41.246 11.5394 5.62173 37.6229C3.68329 39.0414 1.03639 39.8501 -1.73671 39.8711C-3.10981 39.8815 -4.47256 39.6983 -5.74715 39.3318C-7.02174 38.9653 -8.18321 38.4227 -9.16525 37.7351C-11.1486 36.3464 -12.2806 34.451 -12.3123 32.4661C-12.3441 30.4811 -11.2729 28.569 -9.33446 27.1506C23.6275 3.02999 46.357 -5.75219 64.3095 -1.2666C87.0505 4.41541 90.4791 28.014 94.1025 52.9951C95.6289 63.4928 97.1985 74.3381 100.245 82.5083C102.856 89.5262 106.219 93.7276 110.012 94.6753C113.155 95.4606 126.199 95.9993 161.824 69.9158C163.762 68.4973 166.409 67.6886 169.182 67.6676C171.955 67.6465 174.627 68.4149 176.611 69.8036C178.594 71.1923 179.726 73.0876 179.758 75.0726C179.789 77.0576 178.718 78.9696 176.78 80.3881L176.714 80.3717Z" fill="white" fill-opacity="0.25"/>
</svg>
