<svg width="48" height="40" viewBox="0 0 48 40" fill="none" xmlns="http://www.w3.org/2000/svg">
<path d="M46.856 5.92935C45.3443 3.23983 41.3545 2.63423 35.2956 4.16353C32.4906 1.92554 29.1335 0.544154 25.6058 0.176287C22.078 -0.191581 18.5209 0.46882 15.3387 2.08247C12.1565 3.69611 9.47659 6.19832 7.60353 9.30483C5.73048 12.4113 4.73933 15.9976 4.74267 19.6563C4.74292 20.4955 4.7944 21.3338 4.89681 22.1663C-0.575095 28.0164 -0.49605 31.4828 0.573037 33.3832C1.58086 35.1857 3.68347 35.9687 6.45005 35.9687C8.37089 35.9277 10.2804 35.654 12.1393 35.1531C14.9447 37.3889 18.3013 38.7683 21.8282 39.1347C25.3551 39.5012 28.9109 38.8399 32.0919 37.2261C35.2729 35.6122 37.9516 33.1104 39.824 30.0047C41.6964 26.899 42.6873 23.3138 42.6844 19.6563C42.6848 18.8212 42.634 17.9869 42.5322 17.1584C45.0024 14.5077 46.6465 11.9894 47.2058 9.83414C47.5911 8.34155 47.4745 7.0284 46.856 5.92935ZM23.7135 3.34382C27.2942 3.34762 30.7678 4.60382 33.5673 6.90734C36.3668 9.21085 38.3268 12.4256 39.1274 16.0267C35.7561 19.3015 31.1932 22.6598 26.8615 25.229C21.4173 28.4527 16.6943 30.4633 12.9278 31.5643C10.608 29.3318 8.99327 26.4304 8.2939 23.2377C7.59454 20.045 7.84291 16.709 9.00669 13.664C10.1705 10.619 12.1957 8.00611 14.8188 6.16541C17.4419 4.32471 20.5413 3.34152 23.7135 3.34382ZM3.308 31.7458C3.01949 31.234 3.17955 30.2695 3.7467 29.095C4.30755 27.9946 4.9899 26.9649 5.78014 26.0263C6.56348 28.3681 7.77053 30.5353 9.33718 32.4126C5.92835 33.0039 3.80204 32.6267 3.308 31.7458ZM23.7135 35.9687C21.048 35.9715 18.4256 35.274 16.0936 33.9419C20.3741 32.3798 24.5042 30.4097 28.4306 28.0572C32.695 25.5308 36.4695 22.7923 39.5107 20.0885C39.3981 24.3362 37.685 28.3712 34.7352 31.3364C31.7855 34.3016 27.8317 35.9634 23.7135 35.9687ZM44.1507 8.98997C43.8147 10.2766 42.9275 11.7488 41.6548 13.2985C40.8735 10.9538 39.6663 8.78432 38.0978 6.90605C40.9059 6.42688 43.5065 6.46358 44.125 7.56671C44.3028 7.88684 44.3127 8.36602 44.1507 8.98997Z" fill="white"/>
</svg>
