<svg width="57" height="67" viewBox="0 0 57 67" fill="none" xmlns="http://www.w3.org/2000/svg">
<path d="M8.06037 29.181H9.7606C12.8714 36.5219 19.9494 41.6541 28.2113 41.6541C36.4732 41.6541 43.5512 36.5219 46.662 29.181H48.3622C49.4705 29.181 50.3773 28.2455 50.3773 27.1022V14.6291C50.3773 13.4857 49.4705 12.5502 48.3622 12.5502H46.662C43.5512 5.2093 36.4732 0.0771484 28.2113 0.0771484C19.9494 0.0771484 12.8714 5.2093 9.7606 12.5502H8.06037C6.95206 12.5502 6.04527 13.4857 6.04527 14.6291V27.1022C6.04527 28.2455 6.95206 29.181 8.06037 29.181ZM13.0981 17.7474C13.0981 14.8759 15.8059 12.5502 19.1434 12.5502H37.2792C40.6167 12.5502 43.3245 14.8759 43.3245 17.7474V20.8656C43.3245 27.7518 37.9089 33.3387 31.2339 33.3387H25.1886C18.5137 33.3387 13.0981 27.7518 13.0981 20.8656V17.7474ZM22.166 27.1022L23.6773 22.4248L28.2113 20.8656L23.6773 19.3065L22.166 14.6291L20.6547 19.3065L16.1207 20.8656L20.6547 22.4248L22.166 27.1022ZM41.259 41.836C37.4933 44.3436 33.0223 45.8118 28.2113 45.8118C23.4002 45.8118 18.9293 44.3436 15.1636 41.836C6.6624 42.7585 0 50.0994 0 59.1164V60.3637C0 65.3372 0 66.6003 6.04527 66.6003H16.1207V58.2849C16.1207 55.9852 17.9217 54.1272 20.1509 54.1272H36.2716C38.5008 54.1272 40.3018 55.9852 40.3018 58.2849V66.6003H50.3773C56.4226 66.6003 56.4226 65.9687 56.4226 60.3637V59.1164C56.4226 50.0994 49.7602 42.7585 41.259 41.836ZM34.2566 58.2849C33.1483 58.2849 32.2415 59.2204 32.2415 60.3637C32.2415 61.5071 33.1483 62.4426 34.2566 62.4426C35.3649 62.4426 36.2716 61.5071 36.2716 60.3637C36.2716 59.2204 35.3649 58.2849 34.2566 58.2849ZM22.166 58.2849C21.0577 58.2849 20.1509 59.2204 20.1509 60.3637V66.6003H24.1811V60.3637C24.1811 59.2204 23.2743 58.2849 22.166 58.2849Z" fill="white"/>
</svg>
